<?xml version="1.0" encoding="utf-8"?>
<!-- Generator: Adobe Illustrator 22.0.1, SVG Export Plug-In . SVG Version: 6.00 Build 0)  -->
<svg version="1.1" id="Capa_1" xmlns="http://www.w3.org/2000/svg" xmlns:xlink="http://www.w3.org/1999/xlink" x="0px" y="0px"
	 viewBox="0 0 512 512" style="enable-background:new 0 0 512 512;" xml:space="preserve">
<style type="text/css">
	.st0{fill:#FFFFFF;}
</style>
<path class="st0" d="M255,324.3c-6.5,0-12.4,3.6-15.3,9.5c-12.6,25.2-32.3,70-22.4,85.9c2.7,4.5,7.7,7.2,12.9,7
	c6.1,0.1,12.1-1,17.8-3.2c5-2.2,10.7-2.2,15.7,0c5.7,2.2,11.7,3.3,17.8,3.2c5.2,0.2,10.1-2.4,12.8-6.8c2.9-4.7,10.5-17-24-86.1
	C267.4,327.9,261.5,324.3,255,324.3z M280,409.6c-3.3,0-6.5-0.6-9.6-1.8c-9.3-4-19.7-4-29,0c-3.2,1.2-6.5,1.8-9.9,1.8
	c-1.4-7.7,6.7-34.6,23.5-68.2C276.1,383.7,280.6,403.5,280,409.6L280,409.6z"/>
<path class="st0" d="M230.3,315.7c-0.8-18.5-15.6-33.3-34.1-34.1c-39.6,0-59.7,14.4-59.7,42.7c-0.5,5.9-1.8,11.8-3.8,17.4
	c-3.2,10.6-6.2,20.7-0.9,28c3.1,4,8.1,6.2,13.2,5.9c8.2-0.2,16.4-1.8,24-4.7c5.9-2.3,12.2-3.6,18.6-3.8
	C230.3,366.9,230.3,332.3,230.3,315.7z M187.6,349.9c-8.2,0.2-16.4,1.8-24,4.7c-5.6,2.2-11.6,3.5-17.6,3.8c0.7-4,1.7-8,3-11.8
	c2.5-7.2,4.1-14.7,4.5-22.3c0-8.3,0-25.6,42.7-25.6c9.1,0.8,16.2,8,17.1,17.1C213.2,336.3,211.4,349.9,187.6,349.9z"/>
<path class="st0" d="M375.3,324.3c0-28.3-20.1-42.7-59.7-42.7c-18.5,0.8-33.3,15.6-34.1,34.1c0,16.6,0,51.2,42.7,51.2
	c6.4,0.2,12.7,1.5,18.6,3.8c7.7,2.9,15.8,4.5,24,4.7c5.1,0.3,10-1.8,13.1-5.9c5.4-7.3,2.4-17.3-0.9-28
	C377.1,336,375.8,330.2,375.3,324.3z M348.2,354.6c-7.7-2.9-15.8-4.5-24-4.7c-23.8,0-25.6-13.5-25.6-34.1c0.8-9.1,8-16.2,17.1-17.1
	c42.7,0,42.7,17.3,42.7,25.6c0.5,7.6,2,15.1,4.5,22.3c1.3,3.9,2.3,7.8,3,11.8C359.8,358.1,353.8,356.8,348.2,354.6z"/>
<path class="st0" d="M459.3,256.3c-1.9-12.8-5.7-25.3-11.3-37c-2-4.1-2-8.9,0.1-13c3.2-6.2,4.1-13.4,2.8-20.2
	c-3.9-17.6-11.2-34.2-21.5-48.9c4.2-4.2,6.1-10.2,4.8-16c-4-15.7-14-29.1-27.8-37.5c-1.5-0.9-2.1-2.8-1.4-4.5
	c3.9-7.8,2.5-17.2-3.6-23.4c-7.4-7.5-19.6-11.5-38.4-12.7c-2.6-0.1-4.7-2.2-4.7-4.8c0.1-5.7-2.2-11.2-6.2-15.3
	c-10.5-10.5-35.7-23-96.2-23s-85.7,12.5-96.2,23c-4,4.1-6.3,9.6-6.2,15.3c-0.1,2.6-2.1,4.7-4.7,4.8c-18.8,1.2-31,5.2-38.4,12.7
	c-6.1,6.2-7.6,15.7-3.6,23.4c0.7,1.6,0.1,3.6-1.4,4.5c-13.8,8.4-23.8,21.9-27.8,37.6c-1.2,5.9,0.6,12.1,4.9,16.4
	c-10.4,14.5-17.8,31-21.6,48.5c-1.4,6.9-0.4,14,2.8,20.2c2.1,4.1,2.1,8.9,0.1,13c-5.6,11.7-9.4,24.2-11.3,37.1
	c-11.3,7.6-18.2,20.2-18.4,33.8c0,7.5,2.3,14.9,6.4,21.2c-0.1,0.2-0.3,0.4-0.4,0.7c-1.1,1.9-2.1,3.8-2.9,5.8c-0.1,0.3-0.3,0.7-0.4,1
	c-0.8,2-1.4,4.1-1.8,6.3c-0.1,0.3-0.1,0.6-0.2,0.9c-0.4,2.2-0.7,4.5-0.7,6.7c0.4,16.3,10.1,31,25,37.7c0.4,4.3,0.6,8.7,0.6,13.5
	c-2.4,27.9-8.1,55.3-17,81.9c-3,10.2-1.7,21.1,3.7,30.3c4.4,7.4,11.7,12.7,20.2,14.4l1.5,0.3c3.8,0.8,7.7,1.2,11.6,1.2
	c6.6,0,13.1-1.1,19.4-3.2l15.6-6.1c8.7-2.9,15.8-9.1,19.8-17.3c4-8.2,4.6-17.7,1.6-26.3c-3.3-9.3-7.3-20.5-11.6-32.4H162
	c9.4,0,17.1,7.6,17.1,17.1v8.5c0,18.9,15.3,34.1,34.1,34.1h85.3c18.9,0,34.1-15.3,34.1-34.1v-8.5c0-9.4,7.6-17.1,17.1-17.1h37.5
	c-4.4,11.9-8.4,23.1-11.6,32.4c-3,8.6-2.4,17.9,1.5,26.1c3.9,8.1,11,14.4,19.5,17.4l16.4,6.4c9.9,3.3,20.4,3.9,30.6,1.9l1.5-0.3
	c8.5-1.7,15.8-6.9,20.2-14.4c5.3-9.2,6.7-20.1,3.7-30.3c-8.9-26.5-14.6-54-17-81.9c0-4.8,0.3-9.3,0.6-13.5
	c14.9-6.7,24.6-21.4,25-37.7c0-7.6-2.3-15.1-6.4-21.5c4.1-6.3,6.4-13.7,6.4-21.2C477.5,276.5,470.6,263.9,459.3,256.3z M458.9,298.6
	c-0.2-0.1-0.4-0.2-0.6-0.3c-2.2-1.4-4.5-2.7-6.9-3.7c-1.1-0.5-2.2-1-3.3-1.4c-0.8-0.3-1.6-0.6-2.5-0.9c-1.4-0.4-2.8-0.7-3.9-1
	c-1.8-0.4-3.5-0.7-5.3-0.9c-2.5-0.3-5-0.3-7.5-0.2c-0.4,0-0.8,0-1.2,0c-2.5,0.2-5.1,0.5-7.5,1.1l-0.6,0.1c-0.9,0.2-1.8,0.4-2.7,0.6
	c-0.6-6.8-1.6-14.6-2.9-22.9c6.2-3.6,13.3-5.1,20.4-4.4l0.7,0.1c1.3,0.1,2.6,0.4,3.9,0.7c0.3,0.1,0.5,0.1,0.8,0.2
	c2.7,0.7,5.3,1.7,7.7,3.1c0.1,0.1,0.3,0.1,0.4,0.2c7.8,4.2,12.8,12.2,13.1,21.1C460.7,293,460,295.9,458.9,298.6z M380.2,200.3
	c-2.4-1.3-4.8-2.5-7.6-3.7l-0.6-0.2c-2.6-1.1-5.3-2-8.2-2.9c-0.8-0.3-1.6-0.5-2.4-0.7c-3.2-0.9-6.5-1.8-10.1-2.5l-0.4-0.1
	c-3.4-0.7-7.1-1.2-10.9-1.6c-1-0.1-2-0.2-3.1-0.3c-4.1-0.3-8.3-0.6-12.8-0.6c-42.8,0-59.2,57.1-68,87.7c-0.1,0.3-0.2,0.6-0.3,0.9
	c-0.1-0.3-0.2-0.6-0.3-0.9c-8.8-30.7-25.2-87.7-68-87.7c-4.5,0-8.8,0.2-12.8,0.6c-1,0.1-2.1,0.2-3.1,0.3c-3.8,0.4-7.5,0.9-10.9,1.6
	l-0.4,0.1c-3.6,0.7-6.8,1.6-10.1,2.5c-0.9,0.2-1.6,0.5-2.4,0.7c-2.9,0.9-5.6,1.9-8.2,2.9l-0.6,0.2c-2.7,1.2-5.2,2.4-7.6,3.7
	c-0.6,0.3-1.2,0.7-1.9,1c-0.6,0.3-1.2,0.7-1.8,1v-0.8c0.1-1.9,0.2-4,0.3-6.2l0.1-0.8c0.1-0.8,0.1-1.6,0.2-2.4
	c0.2-2.2,0.3-4.5,0.6-6.8c0-0.4,0.1-0.8,0.1-1.2c0.1-1,0.2-2,0.3-3c0.2-2.2,0.5-4.4,0.9-6.7c0.2-1.3,0.3-2.6,0.5-3.8
	c0.4-2.5,0.9-5.1,1.3-7.7c0.1-0.7,0.3-1.5,0.4-2.3c2,5.5,5.4,10.5,9.8,14.3c6.1,4.7,14.2,6.3,21.6,4.1c17.6-5.5,34.2-13.4,49.5-23.7
	c16-9.7,31.1-18.8,42.3-18.8s26.3,9.1,42.3,18.7c15.3,10.3,31.9,18.2,49.5,23.7c7.4,2.2,15.4,0.7,21.6-4c4.5-3.8,7.9-8.7,9.9-14.2
	c0.1,0.7,0.3,1.5,0.4,2.2c0.5,2.6,0.9,5.2,1.3,7.7c0.2,1.3,0.4,2.6,0.5,3.8c0.3,2.3,0.6,4.6,0.9,6.8c0.1,0.9,0.2,1.9,0.3,2.8
	c0.1,0.5,0.1,0.9,0.1,1.4c0.2,2.3,0.4,4.6,0.6,6.7c0.1,0.9,0.1,1.7,0.2,2.6l0,0.7c0.1,2.2,0.2,4.3,0.3,6.2v0.8
	c-0.6-0.4-1.2-0.7-1.8-1C381.4,201,380.8,200.6,380.2,200.3z M145.8,118.5c0.9-1.7,1.7-3.4,2.6-5c0.6-1.1,1.2-2.2,1.9-3.3
	c0.9-1.6,1.9-3.1,3-4.6c0.7-1,1.4-2.1,2.1-3.1c1.1-1.5,2.3-2.9,3.5-4.3c0.8-0.9,1.5-1.8,2.3-2.7c1.4-1.5,2.8-2.8,4.3-4.1
	c0.7-0.7,1.4-1.4,2.2-2c2.3-1.9,4.7-3.6,7.3-5.2c24.6-14.6,52.4-22.9,81-24.4c28.6,1.4,56.4,9.8,80.9,24.4c2.6,1.6,5,3.3,7.3,5.2
	c0.8,0.6,1.5,1.4,2.2,2c1.5,1.3,2.9,2.7,4.3,4.1c0.8,0.9,1.5,1.8,2.3,2.7c1.2,1.4,2.4,2.8,3.5,4.3c0.7,1,1.5,2.1,2.2,3.1
	c1,1.5,2,3,2.9,4.6c0.7,1.1,1.3,2.3,1.9,3.4c0.9,1.6,1.7,3.2,2.5,4.9c0.6,1.2,1.1,2.4,1.7,3.6l0.1,0.4c0,20.1-3.4,34.6-9,39.1
	c-2,1.5-4.6,1.8-6.9,0.9c-15.9-5.1-31-12.4-44.8-21.8c-18.1-10.9-35.2-21.1-51.1-21.1s-33.1,10.2-51.1,21.2
	c-13.8,9.3-28.9,16.7-44.8,21.8c-2.3,0.9-4.9,0.6-6.9-0.9c-5.6-4.4-8.9-19-9-39.1c0.1-0.1,0.1-0.3,0.2-0.4
	C144.7,120.8,145.3,119.7,145.8,118.5z M78.9,198.7c-1.5-2.9-1.9-6.1-1.3-9.3c3.4-15.2,9.8-29.5,19-42.1c4.7-7,3.8-16.5-2.3-22.4
	c3-11.4,10.4-21.1,20.5-27.1c8.7-5.7,11.8-17,7.2-26.3c-0.7-1.2-0.5-2.7,0.5-3.8c8.1-5.5,17.7-8.1,27.4-7.7
	c11.6-0.7,20.6-10.2,20.7-21.8c0-1.2,0.4-2.3,1.2-3.2c5.4-5.4,24.5-18,84.1-18s78.7,12.6,84.1,18c0.8,0.9,1.2,2,1.2,3.2
	c0.1,11.6,9.1,21.1,20.7,21.8c14,0.9,23.2,3.5,27.4,7.7c0.9,1,1.1,2.5,0.5,3.8c-4.6,9.3-1.5,20.6,7.2,26.3
	c10.2,5.9,17.6,15.8,20.4,27.3c-5.9,5.9-6.8,15.2-2.1,22.1c9.1,12.6,15.6,26.9,19,42.1c0.6,3.2,0.1,6.4-1.3,9.3
	c-4.4,8.8-4.5,19.1-0.2,28c3.3,7,5.9,14.2,7.8,21.7c-2.3-0.4-4.6-0.7-6.9-0.8l-1.3-0.1c-0.5,0-0.9-0.1-1.3-0.1
	c-0.8,0-1.6,0.2-2.4,0.2c-1.7,0.1-3.3,0.2-4.9,0.4c-1.2,0.2-2.3,0.4-3.5,0.7c-1.5,0.3-3,0.7-4.5,1.2c-1.1,0.4-2.3,0.7-3.4,1.2
	c-0.6,0.2-1.2,0.4-1.8,0.6c-0.9-3.6-1.7-7.2-2.7-10.9c-0.1-0.5-0.2-1-0.4-1.5c-1-3.6-2.1-7.3-3.3-10.9c-1-3-1.7-6.1-2.1-9.2
	c-0.4-2.7-0.7-5.4-0.7-8.2c0-2.4-0.1-5-0.2-7.8c0-0.7-0.1-1.3-0.1-2c-0.1-2.4-0.2-4.9-0.4-7.5c-0.1-0.7-0.1-1.4-0.1-2.2
	c-0.2-3.2-0.5-6.5-0.9-10v-0.3c-3.8-37.7-16.1-89.2-53.9-111.9c-27.2-16.2-58.1-25.5-89.7-26.8c-31.7,1.3-62.5,10.6-89.7,26.8
	c-37.8,22.6-50.1,74.1-53.9,111.8l0,0.5c-0.3,3.4-0.6,6.7-0.9,9.9c-0.1,0.8-0.1,1.5-0.1,2.2c-0.2,2.6-0.3,5.1-0.4,7.4
	c0,0.7-0.1,1.4-0.1,2.1c-0.1,2.8-0.1,5.5-0.2,7.8c0,2.7-0.3,5.5-0.7,8.1c-0.4,3.1-1.2,6.2-2.1,9.2c-1.2,3.6-2.3,7.2-3.3,10.8
	c-0.2,0.6-0.3,1.2-0.5,1.8c-1,3.6-1.9,7.1-2.7,10.7c-0.8-0.4-1.6-0.6-2.5-0.9c-0.5-0.2-1-0.4-1.5-0.6c-2.3-0.8-4.7-1.4-7.2-1.9
	c-0.5-0.1-1-0.2-1.5-0.2c-2.6-0.4-5.2-0.6-7.8-0.7c-3.2,0-6.5,0.3-9.6,0.9c1.9-7.5,4.5-14.8,7.8-21.7
	C83.4,217.8,83.3,207.5,78.9,198.7z M64.1,269c0.1-0.1,0.3-0.1,0.4-0.2c2.4-1.4,5.1-2.4,7.8-3.1c0.2-0.1,0.5-0.1,0.7-0.2
	c1.3-0.3,2.6-0.5,3.9-0.7c0.2,0,0.4,0,0.6-0.1c7.1-0.7,14.3,0.8,20.4,4.4c-1.3,8.2-2.3,16-2.9,22.9h-0.1c-0.1,0-0.3-0.1-0.4-0.1
	c-1.8-0.5-3.7-0.9-5.6-1.2c-0.7-0.1-1.3-0.2-2-0.3c-1.7-0.2-3.4-0.3-5.1-0.4c-0.3,0-0.6-0.1-0.9-0.1h-0.3c-0.5,0-1,0.1-1.5,0.1
	c-1.6,0.1-3.1,0.2-4.6,0.4c-0.6,0.1-1.3,0.2-1.9,0.3c-2.1,0.3-4.1,0.8-6.2,1.4h-0.2c-0.2,0.1-0.5,0.2-0.7,0.3c-3,1-5.9,2.2-8.7,3.7
	l-0.9,0.5c-0.9,0.5-1.7,1-2.6,1.6c-0.2,0.1-0.3,0.2-0.5,0.3c-1.2-2.7-1.8-5.5-1.8-8.4C51.3,281.3,56.3,273.2,64.1,269z M51.6,328
	c0.1-0.5,0.3-1,0.4-1.5c0.3-1,0.6-2,1.1-3c0.3-0.6,0.6-1.2,0.9-1.8c0.4-0.8,0.9-1.5,1.4-2.2c0.5-0.7,1-1.3,1.5-2
	c0.4-0.4,0.9-0.9,1.2-1.3c1-1,2.1-2,3.2-2.8c0.4-0.3,0.9-0.6,1.3-0.9c1.6-1.1,3.3-2,5.1-2.8c0.2-0.1,0.3-0.2,0.5-0.2
	c0.3-0.1,0.6-0.2,0.9-0.3c0.4-0.1,0.7-0.2,1.1-0.4l0.1,0c1.3-0.4,2.6-0.8,4-1.1c0.6-0.1,1.1-0.2,1.7-0.3c1.1-0.2,2.2-0.2,3.3-0.3
	c0.7,0,1.5-0.1,2.2-0.1c4.4,0.1,8.7,1,12.7,2.7c0.2,0.1,0.3,0.2,0.5,0.3c0,0.3,0.1,0.6,0.2,0.9c0.3,2.3,0.8,4.5,1.5,6.7
	c0.1,0.4,0.2,0.9,0.3,1.3c0.1,0.3,0.2,0.5,0.3,0.7c0.9,2.6,2,5.1,3.3,7.5c0.2,0.5,0.5,0.9,0.7,1.4c0.3,0.6,0.6,1.3,0.8,1.7
	c0.3,0.8,0.4,1.5,0.5,2.3c0,2.1-0.2,4.1-0.8,6.1c-1.9,5.3-5.2,9.9-9.5,13.4c-1.6,1.6-3.4,3.4-5.1,5.3c-0.4,0.1-0.9,0.2-1.2,0.2
	c-1.3,0.2-2.6,0.4-3.8,0.4c-0.5,0-1,0.1-1.4,0.1c-1.7,0-3.3-0.2-5-0.4c-0.2,0-0.5,0-0.7-0.1c-1-0.2-2-0.5-2.9-0.8
	c-0.7-0.2-1.3-0.3-2-0.6c-0.2-0.1-0.3-0.1-0.5-0.1c-10.4-3.2-17.7-12.7-18.2-23.6C51.1,331.2,51.3,329.6,51.6,328z M119.2,477.8
	c-2.1,4.2-5.8,7.4-10.4,8.8l-15.6,6.1c-7,2.3-14.6,2.8-21.9,1.4l-1.5-0.3c-3.8-0.8-7-3.1-8.9-6.5c-2.9-5.1-3.6-11.1-1.9-16.7
	c8-27.5,17.6-64.8,17.6-86.7c0-3-0.1-5.9-0.2-8.7l1.1,0.1c-0.1,0.3,0,0.6-0.1,0.9c-0.5,2.6-0.8,5.2-0.8,7.8c0,2.3,0.2,4.7,0.4,7
	c0.1,0.5,0.1,1,0.2,1.5c0.3,1.9,0.7,3.9,1.2,5.8c0.1,0.2,0.1,0.4,0.1,0.6c0.6,2,1.3,4,2.2,6c0.1,0.2,0.2,0.4,0.3,0.6
	c0.8,1.6,1.7,3.2,2.7,4.7c0.2,0.2,0.3,0.5,0.5,0.7c1.1,1.5,2.3,2.9,3.6,4.1c0.3,0.4,0.7,0.7,1.1,1c1.1,1,2.3,2,3.6,2.9
	c0.4,0.3,0.7,0.5,1.1,0.8c1.5,1,3,1.8,4.6,2.6c0.4,0.2,0.7,0.4,1.1,0.5c1.9,0.8,3.9,1.5,6,2.1h0.1c5.4,14.6,10.4,28.6,14.4,39.9
	C121.5,469,121.2,473.7,119.2,477.8z M315.6,443.7v8.5c0,9.4-7.6,17.1-17.1,17.1h-85.3c-9.4,0-17.1-7.6-17.1-17.1v-8.5
	c0-18.9-15.3-34.1-34.1-34.1h-42.7c-2,0-4-0.2-5.9-0.5h-0.1c-1.5-0.2-3-0.6-4.4-1l-0.5-0.2c-1.1-0.4-2.1-0.8-3.1-1.3
	c-0.7-0.4-1.4-0.8-2.1-1.2c-0.4-0.3-0.9-0.5-1.3-0.9c-2.5-2-4.5-4.6-5.8-7.6v-0.1c-0.7-1.6-1.2-3.4-1.5-5.1
	c-0.1-0.4-0.2-0.7-0.2-1.1c-0.4-2.2-0.6-4.4-0.6-6.6c0-1.8,0.2-3.7,0.7-5.5c0.1-0.5,0.2-0.9,0.4-1.4c0.4-1.4,1-2.7,1.7-3.9
	c0.2-0.3,0.4-0.6,0.5-0.9c0.6-1,1.4-1.9,2.1-2.8c0.6-0.7,1.1-1.3,1.7-2l0.3-0.3c0.9-1,1.9-1.9,2.8-2.9c9.6-7.8,15.2-19.4,15.4-31.7
	c0-1.1-0.1-2.2-0.3-3.3c-0.3-1.8-0.8-3.6-1.5-5.4c-0.7-1.8-1.4-3.5-2.4-5.2c-1.1-2-2-4.1-2.6-6.3c-0.1-0.2-0.1-0.5-0.2-0.7
	c-0.6-2.3-0.9-4.8-1-7.2v-0.2c0-0.9,0-1.7,0-2.5c0-0.5,0-1,0-1.5l0.1-0.6c0.8-10.4,2.1-20.6,3.8-30.4c1.5-9.1,3.5-18.1,6-27
	c0.9-2.9,1.7-5.7,2.7-8.5c0.9-2.7,1.6-5.4,2.1-8.1c0.1-0.3,0.2-0.6,0.2-1c0.4-0.3,0.7-0.7,1.1-1c0.7-0.6,1.4-1.2,2.1-1.8
	c0.7-0.6,1.7-1.3,2.6-2c0.8-0.6,1.6-1.1,2.4-1.7c1-0.7,2.1-1.3,3.2-2c0.9-0.5,1.8-1.1,2.8-1.6c1.2-0.6,2.6-1.2,3.9-1.8
	c1-0.5,2.1-0.9,3.2-1.4c1.5-0.6,3.1-1.1,4.6-1.6c1.2-0.4,2.3-0.8,3.5-1.1c1.7-0.5,3.7-0.9,5.6-1.3c1.3-0.3,2.5-0.6,3.8-0.9
	c2.2-0.4,4.6-0.7,7-1c1.2-0.1,2.3-0.4,3.6-0.5c3.7-0.3,7.7-0.5,11.9-0.5c29.9,0,43.5,47.2,51.6,75.4c5.3,18.5,7.8,27,16.7,27
	c8.9,0,11.3-8.5,16.7-27c8.1-28.2,21.7-75.4,51.6-75.4c4.2,0,8.2,0.2,11.9,0.5c1.3,0.1,2.4,0.3,3.6,0.5c2.4,0.3,4.8,0.6,7,1
	c1.3,0.2,2.6,0.6,3.8,0.9c1.9,0.4,3.8,0.9,5.6,1.3c1.2,0.3,2.3,0.8,3.5,1.1c1.6,0.5,3.2,1,4.6,1.6c1.1,0.4,2.1,0.9,3.2,1.4
	c1.3,0.6,2.7,1.2,3.9,1.8c1,0.5,1.9,1,2.8,1.6c1.1,0.6,2.2,1.3,3.2,2c0.9,0.6,1.6,1.1,2.4,1.7c0.9,0.7,1.8,1.3,2.6,2
	c0.8,0.7,1.4,1.2,2.1,1.8c0.4,0.4,0.8,0.7,1.1,1c0.1,0.3,0.2,0.6,0.2,1c0.5,2.8,1.2,5.5,2.1,8.2c0.9,2.8,1.8,5.7,2.6,8.5
	c2.5,8.9,4.5,17.9,6,27c1.7,9.8,3,20,3.8,30.2c0,0.2,0.1,0.5,0.1,0.8c0.1,1.3,0.1,2.6,0,4v0.2c-0.1,2.4-0.4,4.8-1,7.2l-0.2,0.7
	c-0.6,2.2-1.5,4.3-2.6,6.3c-1,1.9-1.9,3.9-2.6,5.9c-0.1,0.4-0.3,0.8-0.4,1.2c-0.1,0.3-0.1,0.5-0.2,0.8c-0.2,0.9-0.4,1.8-0.6,2.7
	c-0.2,1.1-0.3,2.2-0.3,3.3c0.2,12.3,5.8,23.9,15.4,31.7c1,1,2,2,2.9,2.9l0.2,0.2c0.6,0.7,1.2,1.3,1.7,2c0.8,0.9,1.5,1.8,2.1,2.8
	c0.2,0.3,0.4,0.5,0.5,0.9c0.7,1.2,1.3,2.6,1.7,3.9c0.1,0.4,0.3,0.9,0.4,1.4c0.4,1.8,0.7,3.6,0.7,5.5c0,2.2-0.2,4.4-0.6,6.6
	c-0.1,0.4-0.1,0.8-0.2,1.1c-0.3,1.8-0.9,3.5-1.5,5.1v0.1c-1.3,3-3.3,5.6-5.8,7.6c-0.4,0.3-0.9,0.6-1.3,0.9c-0.7,0.5-1.4,0.9-2.1,1.2
	c-1,0.5-2,0.9-3.1,1.3l-0.5,0.2c-1.4,0.5-2.9,0.8-4.4,1h-0.1c-2,0.3-4,0.5-6,0.5h-42.7C330.9,409.6,315.6,424.9,315.6,443.7z
	 M452.7,470.6c1.7,5.6,1,11.6-1.9,16.7c-1.9,3.3-5.2,5.7-8.9,6.5l-1.5,0.3c-7.1,1.4-14.5,1-21.5-1.2l-16.4-6.4
	c-4.4-1.4-7.9-4.6-10-8.7c-2-4.1-2.3-8.8-0.8-13.1c3.9-11.2,8.9-25.3,14.4-39.9h0.1c2-0.6,4-1.3,6-2.1c0.4-0.2,0.8-0.4,1.1-0.5
	c1.6-0.7,3.2-1.6,4.6-2.6c0.4-0.2,0.7-0.5,1.1-0.8c1.3-0.9,2.5-1.9,3.6-2.9c0.4-0.3,0.8-0.7,1.1-1c1.3-1.3,2.5-2.7,3.6-4.1
	c0.2-0.2,0.3-0.5,0.5-0.7c1-1.5,1.9-3.1,2.7-4.7c0.1-0.2,0.2-0.4,0.3-0.6c0.9-1.9,1.6-3.9,2.2-6c0.1-0.2,0.1-0.4,0.1-0.6
	c0.5-1.9,0.9-3.8,1.2-5.7c0.1-0.5,0.2-1,0.2-1.5c0.3-2.3,0.4-4.7,0.4-7c0-2.6-0.3-5.2-0.8-7.8c-0.1-0.3,0-0.6-0.1-0.9l1.1-0.1
	c-0.1,2.8-0.2,5.7-0.2,8.7C435.1,405.8,444.7,443.2,452.7,470.6z M442.5,356.4c-0.2,0-0.4,0.1-0.5,0.1c-0.7,0.3-1.4,0.4-2.1,0.6
	c-0.9,0.3-1.9,0.6-2.8,0.8c-0.2,0.1-0.4,0.1-0.6,0.1c-1.7,0.3-3.4,0.4-5,0.4c-0.4,0-0.9,0-1.4,0c-1.2-0.1-2.5-0.2-3.7-0.4
	c-0.5-0.1-0.9-0.2-1.4-0.3c-1.7-1.9-3.4-3.7-5.1-5.3c-6.3-4.6-10.1-11.8-10.3-19.6c0-0.8,0.2-1.6,0.4-2.3c0.1-0.5,0.5-1.1,0.7-1.7
	c0.2-0.6,0.4-1,0.7-1.5c1.4-2.4,2.5-5,3.4-7.7c0.2-0.6,0.4-1.2,0.5-1.8c0.7-2.2,1.2-4.5,1.5-6.7c0-0.3,0.2-0.6,0.2-0.9
	c0.2-0.1,0.4-0.2,0.6-0.3c0.6-0.3,1.3-0.5,1.9-0.7c0.9-0.3,1.8-0.6,2.7-0.9c0.7-0.2,1.4-0.4,2.2-0.5c1-0.2,1.9-0.3,2.9-0.4
	c0.7-0.1,1.3-0.2,2-0.2c1.7-0.1,3.4,0,5,0.2c1.2,0.1,2.3,0.3,3.5,0.6c0.9,0.2,1.9,0.4,2.9,0.7c0.3,0.1,0.6,0.2,0.9,0.3
	c0.4,0.1,0.7,0.3,1.1,0.4c0.6,0.2,1.1,0.4,1.6,0.7c3.9,1.6,7.3,4,10.1,7.1c4,4.2,6.3,9.8,6.3,15.6
	C460.2,343.7,452.9,353.1,442.5,356.4L442.5,356.4z"/>
<path class="st0" d="M179.1,110.9c3.1,0,5.9,1.6,7.4,4.3c1.5,2.6,1.5,5.9,0,8.5c-2.4,4.1-1,9.3,3.1,11.7c4.1,2.4,9.3,1,11.7-3.1
	c4.6-7.9,4.6-17.7,0-25.6c-4.6-7.9-13-12.8-22.2-12.8c-4.7,0-8.5,3.8-8.5,8.5C170.5,107.1,174.4,110.9,179.1,110.9z"/>
<path class="st0" d="M317.9,136.5c3.1,0,5.9-1.6,7.4-4.3c1.5-2.6,1.5-5.9,0-8.5c-1.5-2.6-1.5-5.9,0-8.5c1.5-2.6,4.3-4.3,7.4-4.3
	c4.7,0,8.5-3.8,8.5-8.5c0-4.7-3.8-8.5-8.5-8.5c-9.1,0-17.6,4.9-22.2,12.8s-4.6,17.7,0,25.6C312,134.9,314.8,136.5,317.9,136.5z"/>
<path class="st0" d="M230.3,162.1c-4.7,0-8.5,3.8-8.5,8.5c0,4.7,3.8,8.5,8.5,8.5c0,4.7,3.8,8.5,8.5,8.5c4.7,0,8.5-3.8,8.5-8.5
	c0.1-4.6-1.7-9-4.9-12.2C239.2,163.8,234.8,162,230.3,162.1z"/>
<path class="st0" d="M281.5,162.1c-4.6-0.1-9,1.7-12.2,4.9c-3.2,3.2-5,7.6-4.9,12.2c0,4.8,3.9,8.7,8.7,8.7c4.8,0,8.7-3.9,8.7-8.7
	c4.7-0.1,8.5-3.9,8.4-8.7C290.1,165.8,286.2,162.1,281.5,162.1z"/>
</svg>
